<?xml version="1.0" encoding="UTF-8" standalone="no"?>
<svg width="154px" height="154px" viewBox="0 0 154 154" version="1.1" xmlns="http://www.w3.org/2000/svg" xmlns:xlink="http://www.w3.org/1999/xlink">
    <!-- Generator: Sketch 41 (35326) - http://www.bohemiancoding.com/sketch -->
    <title>Oval-2</title>
    <desc>Created with Sketch.</desc>
    <defs>
        <path d="M63,126 C97.7939392,126 126,97.7939392 126,63 C126,28.2060608 97.7939392,0 63,0 C28.2060608,0 0,28.2060608 0,63 C0,97.7939392 28.2060608,126 63,126 Z M63,118.5 C32.3481964,118.5 7.5,93.6518036 7.5,63 C7.5,32.3481964 32.3481964,7.5 63,7.5 C93.6518036,7.5 118.5,32.3481964 118.5,63 C118.5,93.6518036 93.6518036,118.5 63,118.5 Z" id="path-1"></path>
        <filter x="-50%" y="-50%" width="200%" height="200%" filterUnits="objectBoundingBox" id="filter-2">
            <feOffset dx="0" dy="2" in="SourceAlpha" result="shadowOffsetOuter1"></feOffset>
            <feGaussianBlur stdDeviation="7" in="shadowOffsetOuter1" result="shadowBlurOuter1"></feGaussianBlur>
            <feColorMatrix values="0 0 0 0 0.6   0 0 0 0 0.6   0 0 0 0 0.6  0 0 0 0.5 0" type="matrix" in="shadowBlurOuter1"></feColorMatrix>
        </filter>
    </defs>
    <g id="Page-1" stroke="none" stroke-width="1" fill="none" fill-rule="evenodd">
        <g id="play-btn" transform="translate(14.000000, 12.000000)">
            <g id="Page-1">
                <g id="Desktop">
                    <g id="play">
                        <g id="Oval-2">
                            <use fill="black" fill-opacity="1" filter="url(#filter-2)" xlink:href="#path-1"></use>
                            <use fill="#FFFFFF" fill-rule="evenodd" xlink:href="#path-1"></use>
                        </g>
                    </g>
                </g>
            </g>
        </g>
    </g>
</svg>