<?xml version="1.0" encoding="utf-8"?>
<!-- Generator: Adobe Illustrator 18.1.1, SVG Export Plug-In . SVG Version: 6.00 Build 0)  -->
<svg version="1.1" id="Layer_1" xmlns="http://www.w3.org/2000/svg" xmlns:xlink="http://www.w3.org/1999/xlink" x="0px" y="0px"
	 viewBox="0 0 500 500" enable-background="new 0 0 500 500" xml:space="preserve">
<path fill="#4D4D4D" d="M126.7,206c34.8-21.9,69.5-43.7,104.3-65.6c3.7-2.3,11.1-7.1,11.1-7.1s65.8,41.3,100.6,63.2
	c5,3.1,10,6.3,15,9.4c8.2,5.2,15.7-7.8,7.6-13c-34.8-21.9-69.5-43.7-104.3-65.6c-5-3.1-10-6.3-15-9.4c-2.2-1.4-5.4-1.4-7.6,0
	c-34.8,21.9-69.5,43.7-104.3,65.6c-5,3.1-10,6.3-15,9.4C110.9,198.1,118.5,211.1,126.7,206L126.7,206z"/>
<g>
	<path fill="#4D4D4D" d="M174.9,330.4l2,12.3c-3.9,0.8-7.4,1.2-10.5,1.2c-5,0-8.9-0.8-11.7-2.4s-4.7-3.7-5.9-6.3
		c-1.1-2.6-1.7-8.1-1.7-16.4v-47.1h-10.2v-10.8h10.2v-20.3l13.8-8.3v28.6h14v10.8h-14v47.9c0,4,0.2,6.5,0.7,7.6
		c0.5,1.1,1.3,2,2.4,2.7c1.1,0.7,2.7,1,4.7,1C170.3,331,172.4,330.8,174.9,330.4z"/>
	<path fill="#4D4D4D" d="M183.3,301.9c0-15.2,4.2-26.4,12.7-33.7c7-6.1,15.6-9.1,25.8-9.1c11.3,0,20.5,3.7,27.6,11.1
		c7.1,7.4,10.7,17.6,10.7,30.6c0,10.5-1.6,18.8-4.7,24.9c-3.2,6-7.8,10.7-13.8,14.1c-6,3.3-12.6,5-19.8,5c-11.5,0-20.7-3.7-27.8-11
		C186.8,326.3,183.3,315.7,183.3,301.9z M197.6,301.9c0,10.5,2.3,18.3,6.9,23.6c4.6,5.2,10.3,7.8,17.3,7.8c6.9,0,12.6-2.6,17.2-7.9
		c4.6-5.2,6.9-13.2,6.9-24c0-10.1-2.3-17.8-6.9-23c-4.6-5.2-10.3-7.8-17.2-7.8c-6.9,0-12.7,2.6-17.3,7.8
		C199.8,283.5,197.6,291.4,197.6,301.9z"/>
	<path fill="#4D4D4D" d="M276.3,374.2V260.9H289v10.6c3-4.2,6.4-7.3,10.1-9.4c3.8-2.1,8.3-3.1,13.7-3.1c7,0,13.2,1.8,18.5,5.4
		c5.3,3.6,9.4,8.7,12.1,15.2c2.7,6.6,4.1,13.7,4.1,21.6c0,8.4-1.5,15.9-4.5,22.6c-3,6.7-7.4,11.9-13.1,15.4
		c-5.7,3.6-11.8,5.4-18.1,5.4c-4.6,0-8.8-1-12.5-2.9c-3.7-2-6.7-4.4-9.1-7.4v39.9H276.3z M288.9,302.3c0,10.5,2.1,18.3,6.4,23.4
		c4.3,5,9.4,7.6,15.5,7.6c6.2,0,11.5-2.6,15.9-7.8c4.4-5.2,6.6-13.3,6.6-24.3c0-10.4-2.1-18.3-6.4-23.5c-4.3-5.2-9.4-7.8-15.4-7.8
		c-5.9,0-11.1,2.8-15.7,8.3C291.2,283.8,288.9,291.8,288.9,302.3z"/>
</g>
</svg>
